<svg xmlns="http://www.w3.org/2000/svg" viewBox="0 0 128 128" width="128" height="128" role="img" aria-label="PlayVault">
  <defs>
    <linearGradient id="seam-full-neon" x1="0" y1="0" x2="0" y2="1">
      <stop offset="0" stop-color="#7C5CFF" stop-opacity="0"/>
      <stop offset=".5" stop-color="#A9F5FF" stop-opacity=".95"/>
      <stop offset="1" stop-color="#7C5CFF" stop-opacity="0"/>
    </linearGradient>
    <radialGradient id="glow-full-neon">
      <stop offset="0" stop-color="#7C5CFF" stop-opacity=".45"/>
      <stop offset="1" stop-color="#7C5CFF" stop-opacity="0"/>
    </radialGradient>
  </defs>
  <circle cx="64" cy="64" r="61" fill="#2B2263"/>
  <circle cx="64" cy="64" r="60" fill="none" stroke="#4C3CAB" stroke-width="2" opacity=".55"/>
  <circle cx="64" cy="64" r="56" fill="#0D0922"/>
  <rect x="57" y="13" width="14" height="102" rx="7" fill="url(#seam-full-neon)"/>
  <path d="M59 12 A52 52 0 0 0 59 116 Z" fill="#171034" stroke="#4C3CAB" stroke-width="1.6"/>
  <path d="M69 12 A52 52 0 0 1 69 116 Z" fill="#171034" stroke="#4C3CAB" stroke-width="1.6"/>
  <circle cx="32" cy="96.17" r="3.2" fill="#8776E8"/><circle cx="22.63" cy="85" r="3.2" fill="#8776E8"/><circle cx="17.64" cy="71.29" r="3.2" fill="#8776E8"/><circle cx="17.64" cy="56.71" r="3.2" fill="#8776E8"/><circle cx="22.63" cy="43" r="3.2" fill="#8776E8"/>
  <circle cx="96" cy="31.83" r="3.2" fill="#8776E8"/><circle cx="105.37" cy="43" r="3.2" fill="#8776E8"/><circle cx="110.36" cy="56.71" r="3.2" fill="#8776E8"/><circle cx="110.36" cy="71.29" r="3.2" fill="#8776E8"/><circle cx="105.37" cy="85" r="3.2" fill="#8776E8"/>
  <circle cx="64" cy="64" r="44" fill="url(#glow-full-neon)"/>
  <path d="M47.72 42.88 L88.52 64 L47.72 85.12 Z" fill="#25D8F2" stroke="#25D8F2" stroke-width="9" stroke-linejoin="round"/>
</svg>
